<!-- Apple logo SVG for button use -->
<svg xmlns="http://www.w3.org/2000/svg" width="18" height="18" viewBox="0 0 24 24">
  <g>
    <path fill="#000" d="M16.68 1.8c0 1.14-.93 2.06-2.07 2.06-.02-1.17.95-2.07 2.07-2.06zm2.23 4.32c-1.13-.13-2.09.62-2.64.62-.56 0-1.42-.6-2.34-.58-.96.02-1.85.56-2.34 1.43-1 .17-3.7 1.44-3.7 4.28 0 1.7.65 3.47 1.45 4.62.68 1.01 1.48 2.13 2.54 2.09 1-.04 1.38-.65 2.59-.65 1.2 0 1.54.65 2.59.63 1.07-.02 1.74-1.03 2.41-2.04.66-.99.93-1.96.94-2.01-.02-.01-1.8-.69-1.81-2.74-.01-1.72 1.4-2.54 1.47-2.58-.8-1.17-2.04-1.3-2.48-1.32zm-2.13-4.32c0 1.14-.93 2.06-2.07 2.06-.02-1.17.95-2.07 2.07-2.06z"/>
  </g>
</svg>
