<!-- Official Google G icon SVG from Google branding guidelines -->
<svg xmlns="http://www.w3.org/2000/svg" width="18" height="18" viewBox="0 0 48 48">
  <g>
    <path fill="#4285F4" d="M24 9.5c3.54 0 6.7 1.22 9.19 3.23l6.85-6.85C36.68 2.36 30.74 0 24 0 14.82 0 6.71 5.82 2.69 14.09l7.99 6.21C12.13 13.99 17.56 9.5 24 9.5z"/>
    <path fill="#34A853" d="M46.1 24.55c0-1.64-.15-3.22-.42-4.74H24v9.01h12.42c-.54 2.9-2.18 5.36-4.65 7.01l7.19 5.59C43.98 37.13 46.1 31.36 46.1 24.55z"/>
    <path fill="#FBBC05" d="M10.68 28.3a14.5 14.5 0 0 1 0-8.6l-7.99-6.21A23.97 23.97 0 0 0 0 24c0 3.77.9 7.34 2.69 10.91l7.99-6.21z"/>
    <path fill="#EA4335" d="M24 48c6.48 0 11.93-2.15 15.9-5.86l-7.19-5.59c-2.01 1.35-4.6 2.16-8.71 2.16-6.44 0-11.87-4.49-13.32-10.5l-7.99 6.21C6.71 42.18 14.82 48 24 48z"/>
    <path fill="none" d="M0 0h48v48H0z"/>
  </g>
</svg>
